<mxfile host="app.diagrams.net" modified="2024-05-03T15:43:06.341Z" agent="Mozilla/5.0 (Macintosh; Intel Mac OS X 10_15_7) AppleWebKit/605.1.15 (KHTML, like Gecko) Version/17.4.1 Safari/605.1.15" etag="OKIL5CkDhQFnXpSV4B98" version="24.3.1" type="github">
  <diagram name="Page-1" id="1Fksj1c5hpRDsKyz05DZ">
    <mxGraphModel dx="46327" dy="32686" grid="1" gridSize="10" guides="1" tooltips="1" connect="1" arrows="1" fold="1" page="1" pageScale="0.01" pageWidth="850" pageHeight="1100" math="0" shadow="0">
      <root>
        <mxCell id="0" />
        <mxCell id="1" parent="0" />
        <mxCell id="FvqbvWuEIoKOfnwJWGmL-9" value="Concrete" parent="0" />
        <mxCell id="FvqbvWuEIoKOfnwJWGmL-10" value="" style="whiteSpace=wrap;html=1;fillColor=#f5f5f5;fontColor=#333333;strokeColor=#666666;" vertex="1" parent="FvqbvWuEIoKOfnwJWGmL-9">
          <mxGeometry x="13100" y="180" width="16900" height="9100" as="geometry" />
        </mxCell>
        <mxCell id="FvqbvWuEIoKOfnwJWGmL-11" value="Frame" parent="0" />
        <mxCell id="FvqbvWuEIoKOfnwJWGmL-12" value="" style="whiteSpace=wrap;html=1;" vertex="1" parent="FvqbvWuEIoKOfnwJWGmL-11">
          <mxGeometry x="13080" y="160" width="9600" height="3200" as="geometry" />
        </mxCell>
      </root>
    </mxGraphModel>
  </diagram>
</mxfile>
